REM DIRINDEX 1\2,1\3,1\4,1\5
REM DIRNAME "folder01","folder02","folder03","folder04","folder05"
TITLE ""
FILE "P1Q_t_0901-0909.mp3" MP3
  TRACK 01 AUDIO
    TITLE "0:"
    INDEX 01 00:00:00
  TRACK 02 AUDIO
    TITLE "2:cjc173_3651"
    INDEX 01 00:00:08
  TRACK 03 AUDIO
    TITLE "0:"
    INDEX 01 00:01:55
  TRACK 04 AUDIO
    TITLE "2:cjc173_3652"
    INDEX 01 00:02:27
  TRACK 05 AUDIO
    TITLE "0:"
    INDEX 01 00:03:30
  TRACK 06 AUDIO
    TITLE "3:cjc173_3653"
    INDEX 01 00:04:00
  TRACK 07 AUDIO
    TITLE "0:"
    INDEX 01 00:05:17
  TRACK 08 AUDIO
    TITLE "4:cjc173_3654"
    INDEX 01 00:05:43
  TRACK 09 AUDIO
    TITLE "0:"
    INDEX 01 00:08:08
  TRACK 10 AUDIO
    TITLE "5:cjc173_3655"
    INDEX 01 00:08:27
  TRACK 11 AUDIO
    TITLE "0:"
    INDEX 01 00:13:50
  TRACK 12 AUDIO
    TITLE "3:cjc173_3656"
    INDEX 01 00:14:20
  TRACK 13 AUDIO
    TITLE "0:"
    INDEX 01 00:15:47
  TRACK 14 AUDIO
    TITLE "4:cjc173_3657"
    INDEX 01 00:15:71
  TRACK 15 AUDIO
    TITLE "0:"
    INDEX 01 00:18:53
  TRACK 16 AUDIO
    TITLE "5:cjc173_3658"
    INDEX 01 00:18:73
  TRACK 17 AUDIO
    TITLE "0:"
    INDEX 01 00:23:62
  TRACK 18 AUDIO
    TITLE "3:cjc173_3659"
    INDEX 01 00:24:32
  TRACK 19 AUDIO
    TITLE "0:"
    INDEX 01 00:25:38
  TRACK 20 AUDIO
    TITLE "4:cjc173_3660"
    INDEX 01 00:25:59
  TRACK 21 AUDIO
    TITLE "0:"
    INDEX 01 00:28:67
  TRACK 22 AUDIO
    TITLE "5:cjc173_3661"
    INDEX 01 00:29:10
  TRACK 23 AUDIO
    TITLE "0:"
    INDEX 01 00:34:50
  TRACK 24 AUDIO
    TITLE "3:cjc173_3662"
    INDEX 01 00:35:20
  TRACK 25 AUDIO
    TITLE "0:"
    INDEX 01 00:36:24
  TRACK 26 AUDIO
    TITLE "4:cjc173_3663"
    INDEX 01 00:36:45
  TRACK 27 AUDIO
    TITLE "0:"
    INDEX 01 00:39:67
  TRACK 28 AUDIO
    TITLE "5:cjc173_3664"
    INDEX 01 00:40:12
  TRACK 29 AUDIO
    TITLE "0:"
    INDEX 01 00:44:35
  TRACK 30 AUDIO
    TITLE "3:cjc173_3665"
    INDEX 01 00:45:07
  TRACK 31 AUDIO
    TITLE "0:"
    INDEX 01 00:46:10
  TRACK 32 AUDIO
    TITLE "4:cjc173_3666"
    INDEX 01 00:46:32
  TRACK 33 AUDIO
    TITLE "0:"
    INDEX 01 00:47:71
  TRACK 34 AUDIO
    TITLE "5:cjc173_3667"
    INDEX 01 00:48:15
  TRACK 35 AUDIO
    TITLE "0:"
    INDEX 01 00:53:07
  TRACK 36 AUDIO
    TITLE "3:cjc173_3668"
    INDEX 01 00:53:54
  TRACK 37 AUDIO
    TITLE "0:"
    INDEX 01 00:54:65
  TRACK 38 AUDIO
    TITLE "4:cjc173_3669"
    INDEX 01 00:55:11
  TRACK 39 AUDIO
    TITLE "0:"
    INDEX 01 00:56:54
  TRACK 40 AUDIO
    TITLE "5:cjc173_3670"
    INDEX 01 00:56:73
  TRACK 41 AUDIO
    TITLE "0:"
    INDEX 01 01:02:04
  TRACK 42 AUDIO
    TITLE "3:cjc173_3671"
    INDEX 01 01:02:51
  TRACK 43 AUDIO
    TITLE "0:"
    INDEX 01 01:03:60
  TRACK 44 AUDIO
    TITLE "4:cjc173_3672"
    INDEX 01 01:04:06
  TRACK 45 AUDIO
    TITLE "0:"
    INDEX 01 01:05:39
  TRACK 46 AUDIO
    TITLE "5:cjc173_3673"
    INDEX 01 01:05:59
  TRACK 47 AUDIO
    TITLE "0:"
    INDEX 01 01:09:55
  TRACK 48 AUDIO
    TITLE "3:cjc173_3674"
    INDEX 01 01:10:27
  TRACK 49 AUDIO
    TITLE "0:"
    INDEX 01 01:11:46
  TRACK 50 AUDIO
    TITLE "4:cjc173_3675"
    INDEX 01 01:11:67
  TRACK 51 AUDIO
    TITLE "0:"
    INDEX 01 01:13:23
  TRACK 52 AUDIO
    TITLE "5:cjc173_3676"
    INDEX 01 01:13:45
  TRACK 53 AUDIO
    TITLE "0:"
    INDEX 01 01:17:50
  TRACK 54 AUDIO
    TITLE "3:cjc173_3677"
    INDEX 01 01:18:26
  TRACK 55 AUDIO
    TITLE "0:"
    INDEX 01 01:19:43
  TRACK 56 AUDIO
    TITLE "4:cjc173_3678"
    INDEX 01 01:19:63
  TRACK 57 AUDIO
    TITLE "0:"
    INDEX 01 01:22:69
  TRACK 58 AUDIO
    TITLE "5:cjc173_3679"
    INDEX 01 01:23:16
  TRACK 59 AUDIO
    TITLE "0:"
    INDEX 01 01:26:61
